<svg width="129" height="128" viewBox="0 0 129 128" fill="none" xmlns="http://www.w3.org/2000/svg">
<path d="M17.5134 33.6383C17.1924 33.3211 16.9376 32.9437 16.7637 32.5279C16.5898 32.1121 16.5002 31.6661 16.5002 31.2157C16.5002 30.7653 16.5898 30.3193 16.7637 29.9035C16.9376 29.4877 17.1924 29.1103 17.5134 28.7931L29.0908 17.2602C29.7358 16.6177 30.6106 16.2567 31.5228 16.2567C31.9744 16.2567 32.4216 16.3454 32.8389 16.5175C33.2562 16.6897 33.6353 16.9421 33.9547 17.2602C34.2741 17.5784 34.5274 17.956 34.7002 18.3717C34.8731 18.7874 34.962 19.2329 34.962 19.6828C34.962 20.1327 34.8731 20.5782 34.7002 20.9939C34.5274 21.4096 34.2741 21.7873 33.9547 22.1054L22.3773 33.6383C22.0589 33.9581 21.68 34.2119 21.2626 34.3852C20.8452 34.5584 20.3975 34.6476 19.9454 34.6476C19.4932 34.6476 19.0455 34.5584 18.6281 34.3852C18.2107 34.2119 17.8319 33.9581 17.5134 33.6383ZM19.9454 53.8038C20.3962 53.8064 20.843 53.7203 21.2603 53.5505C21.6777 53.3807 22.0572 53.1305 22.3773 52.8143L53.2047 22.1054C53.524 21.7873 53.7774 21.4096 53.9502 20.9939C54.123 20.5782 54.212 20.1327 54.212 19.6828C54.212 19.2329 54.123 18.7874 53.9502 18.3717C53.7774 17.956 53.524 17.5784 53.2047 17.2602C52.8853 16.9421 52.5062 16.6897 52.0889 16.5175C51.6716 16.3454 51.2244 16.2567 50.7727 16.2567C49.8606 16.2567 48.9858 16.6177 48.3408 17.2602L17.5134 47.9691C17.1924 48.2863 16.9376 48.6637 16.7637 49.0795C16.5898 49.4953 16.5002 49.9413 16.5002 50.3917C16.5002 50.8421 16.5898 51.2881 16.7637 51.7039C16.9376 52.1197 17.1924 52.4971 17.5134 52.8143C17.8335 53.1305 18.2131 53.3807 18.6304 53.5505C19.0477 53.7203 19.4946 53.8064 19.9454 53.8038ZM19.9454 73.1163C20.3962 73.1189 20.843 73.0328 21.2603 72.863C21.6777 72.6932 22.0572 72.443 22.3773 72.1268L72.6602 22.1054C73.0411 21.8103 73.3552 21.4383 73.5817 21.0138C73.8083 20.5893 73.9422 20.1219 73.9748 19.6422C74.0074 19.1626 73.9378 18.6815 73.7707 18.2305C73.6036 17.7794 73.3427 17.3687 73.0051 17.0252C72.6675 16.6816 72.2608 16.413 71.8118 16.2369C71.3627 16.0609 70.8813 15.9813 70.3992 16.0035C69.9171 16.0257 69.4452 16.1491 69.0143 16.3657C68.5834 16.5823 68.2034 16.8871 67.899 17.2602L17.5134 67.4522C17.1924 67.7694 16.9376 68.1468 16.7637 68.5626C16.5898 68.9784 16.5002 69.4244 16.5002 69.8748C16.5002 70.3252 16.5898 70.7712 16.7637 71.187C16.9376 71.6028 17.1924 71.9802 17.5134 72.2974C18.1763 72.8988 19.0494 73.2173 19.9454 73.1845V73.1163ZM19.9454 92.4288C20.3962 92.4314 20.843 92.3453 21.2603 92.1755C21.6777 92.0057 22.0572 91.7555 22.3773 91.4393L92.0471 22.1054C92.6921 21.4629 93.0545 20.5915 93.0545 19.6828C93.0545 18.7742 92.6921 17.9027 92.0471 17.2602C91.4022 16.6177 90.5274 16.2567 89.6152 16.2567C88.7031 16.2567 87.8283 16.6177 87.1833 17.2602L17.5134 86.6623C17.1924 86.9795 16.9376 87.3569 16.7637 87.7727C16.5898 88.1885 16.5002 88.6345 16.5002 89.0849C16.5002 89.5353 16.5898 89.9813 16.7637 90.3971C16.9376 90.8129 17.1924 91.1903 17.5134 91.5075C17.8335 91.8237 18.2131 92.0739 18.6304 92.2437C19.0477 92.4135 19.4946 92.4996 19.9454 92.497V92.4288ZM111.434 17.3626C111.116 17.0428 110.737 16.7889 110.319 16.6157C109.902 16.4425 109.454 16.3533 109.002 16.3533C108.55 16.3533 108.102 16.4425 107.685 16.6157C107.268 16.7889 106.889 17.0428 106.57 17.3626L17.5134 106.077C17.1924 106.394 16.9376 106.772 16.7637 107.188C16.5898 107.603 16.5002 108.049 16.5002 108.5C16.5002 108.95 16.5898 109.396 16.7637 109.812C16.9376 110.228 17.1924 110.605 17.5134 110.922C17.8319 111.242 18.2107 111.496 18.6281 111.669C19.0455 111.842 19.4932 111.932 19.9454 111.932C20.3975 111.932 20.8452 111.842 21.2626 111.669C21.68 111.496 22.0589 111.242 22.3773 110.922L111.434 22.2078C111.771 21.889 112.039 21.5053 112.222 21.08C112.406 20.6548 112.5 20.1968 112.5 19.734C112.5 19.2712 112.406 18.8132 112.222 18.3879C112.039 17.9627 111.771 17.579 111.434 17.2602V17.3626ZM106.57 36.7433L37.0717 105.975C36.7506 106.292 36.4958 106.669 36.3219 107.085C36.148 107.501 36.0585 107.947 36.0585 108.397C36.0585 108.848 36.148 109.294 36.3219 109.71C36.4958 110.125 36.7506 110.503 37.0717 110.82C37.3901 111.14 37.7689 111.394 38.1863 111.567C38.6037 111.74 39.0514 111.829 39.5036 111.829C39.9558 111.829 40.4035 111.74 40.8209 111.567C41.2383 111.394 41.6171 111.14 41.9356 110.82L111.434 41.4179C111.895 40.7523 112.103 39.9455 112.022 39.1412C111.941 38.3369 111.576 37.5873 110.992 37.0261C110.408 36.4648 109.643 36.1283 108.833 36.0766C108.023 36.0248 107.221 36.2611 106.57 36.7433ZM106.57 56.0558L56.2874 105.975C55.9664 106.292 55.7115 106.669 55.5376 107.085C55.3637 107.501 55.2742 107.947 55.2742 108.397C55.2742 108.848 55.3637 109.294 55.5376 109.71C55.7115 110.125 55.9664 110.503 56.2874 110.82C56.6058 111.14 56.9847 111.394 57.4021 111.567C57.8195 111.74 58.2672 111.829 58.7193 111.829C59.1715 111.829 59.6192 111.74 60.0366 111.567C60.454 111.394 60.8329 111.14 61.1513 110.82L111.434 60.628C112.079 59.9855 112.441 59.1141 112.441 58.2054C112.441 57.2968 112.079 56.4253 111.434 55.7828C110.789 55.1403 109.914 54.7794 109.002 54.7794C108.09 54.7794 107.215 55.1403 106.57 55.7828V56.0558ZM106.57 75.3683L75.7429 106.077C75.4219 106.394 75.167 106.772 74.9931 107.188C74.8192 107.603 74.7297 108.049 74.7297 108.5C74.7297 108.95 74.8192 109.396 74.9931 109.812C75.167 110.228 75.4219 110.605 75.7429 110.922C76.0613 111.242 76.4402 111.496 76.8576 111.669C77.275 111.842 77.7227 111.932 78.1748 111.932C78.627 111.932 79.0747 111.842 79.4921 111.669C79.9095 111.496 80.2883 111.242 80.6068 110.922L111.434 80.2134C112.079 79.5709 112.441 78.6995 112.441 77.7909C112.441 76.8822 112.079 76.0108 111.434 75.3683C110.789 74.7258 109.914 74.3648 109.002 74.3648C108.09 74.3648 107.215 74.7258 106.57 75.3683ZM106.57 94.6125L94.9929 106.145C94.6718 106.463 94.417 106.84 94.2431 107.256C94.0692 107.672 93.9797 108.118 93.9797 108.568C93.9797 109.018 94.0692 109.464 94.2431 109.88C94.417 110.296 94.6718 110.673 94.9929 110.991C95.3113 111.31 95.6901 111.564 96.1075 111.737C96.5249 111.911 96.9726 112 97.4248 112C97.877 112 98.3247 111.911 98.7421 111.737C99.1595 111.564 99.5383 111.31 99.8567 110.991L111.434 99.4577C111.753 99.1395 112.007 98.7619 112.18 98.3462C112.353 97.9305 112.441 97.485 112.441 97.0351C112.441 96.5852 112.353 96.1397 112.18 95.724C112.007 95.3083 111.753 94.9306 111.434 94.6125C111.115 94.2944 110.736 94.042 110.318 93.8698C109.901 93.6977 109.454 93.609 109.002 93.609C108.551 93.609 108.103 93.6977 107.686 93.8698C107.269 94.042 106.89 94.2944 106.57 94.6125Z" fill="#676767"/>
</svg>
