<svg width="129" height="128" viewBox="0 0 129 128" fill="none" xmlns="http://www.w3.org/2000/svg">
<path d="M86.3089 107.999C85.6369 107.999 84.949 107.915 84.269 107.735L22.4176 91.1714C18.1776 90.0034 15.6496 85.6115 16.7616 81.3715L24.5655 52.2838C24.8535 51.2158 25.9495 50.5958 27.0135 50.8678C28.0815 51.1518 28.7135 52.2518 28.4295 53.3158L20.6296 82.3955C20.0736 84.5155 21.3456 86.7235 23.4696 87.3114L85.297 103.867C87.4209 104.427 89.6129 103.163 90.1649 101.051L93.2889 89.4754C93.5769 88.4074 94.6729 87.7715 95.7408 88.0635C96.8088 88.3514 97.4368 89.4514 97.1528 90.5154L94.0329 102.075C93.0929 105.635 89.8529 107.999 86.3089 107.999Z" fill="#676767"/>
<path d="M104.497 83.9995H40.4974C36.0854 83.9995 32.4975 80.4115 32.4975 75.9996V28C32.4975 23.5881 36.0854 20.0001 40.4974 20.0001H104.497C108.909 20.0001 112.497 23.5881 112.497 28V75.9996C112.497 80.4115 108.909 83.9995 104.497 83.9995ZM40.4974 24.0001C38.2934 24.0001 36.4974 25.7961 36.4974 28V75.9996C36.4974 78.2035 38.2934 79.9995 40.4974 79.9995H104.497C106.701 79.9995 108.497 78.2035 108.497 75.9996V28C108.497 25.7961 106.701 24.0001 104.497 24.0001H40.4974Z" fill="#676767"/>
<path d="M52.4973 47.9998C48.0853 47.9998 44.4973 44.4119 44.4973 39.9999C44.4973 35.588 48.0853 32 52.4973 32C56.9092 32 60.4972 35.588 60.4972 39.9999C60.4972 44.4119 56.9092 47.9998 52.4973 47.9998ZM52.4973 36C50.2933 36 48.4973 37.7959 48.4973 39.9999C48.4973 42.2039 50.2933 43.9999 52.4973 43.9999C54.7012 43.9999 56.4972 42.2039 56.4972 39.9999C56.4972 37.7959 54.7012 36 52.4973 36Z" fill="#676767"/>
<path d="M34.7774 79.7195C34.2654 79.7195 33.7535 79.5235 33.3615 79.1355C32.5815 78.3555 32.5815 77.0876 33.3615 76.3076L52.2533 57.4158C54.5172 55.1518 58.4732 55.1518 60.7372 57.4158L66.3611 63.0397L81.929 44.3599C83.061 43.0039 84.725 42.2159 86.4969 42.1999H86.5409C88.2929 42.1999 89.9529 42.9599 91.0969 44.2919L112.017 68.6996C112.737 69.5356 112.641 70.7996 111.801 71.5196C110.965 72.2396 109.705 72.1476 108.981 71.3036L88.0609 46.8959C87.6729 46.4479 87.1369 46.1999 86.5409 46.1999C86.1249 46.1639 85.3929 46.4519 85.005 46.9199L68.0331 67.2837C67.6731 67.7157 67.1491 67.9756 66.5851 67.9996C66.0171 68.0396 65.4771 67.8157 65.0811 67.4157L57.9092 60.2437C57.1532 59.4917 55.8372 59.4917 55.0812 60.2437L36.1894 79.1355C35.8014 79.5235 35.2894 79.7195 34.7774 79.7195Z" fill="#676767"/>
</svg>
