<svg width="32" height="32" viewBox="0 0 32 32" fill="none" xmlns="http://www.w3.org/2000/svg">
<path d="M27.7501 16.6061L24.3211 20.035C23.9859 20.3702 23.4442 20.3702 23.109 20.035C22.7738 19.6999 22.7738 19.1581 23.109 18.8229L25.0746 16.8572H16.8571V25.0748L18.8228 23.1091C19.158 22.7739 19.6997 22.7739 20.0349 23.1091C20.3701 23.4443 20.3701 23.9861 20.0349 24.3213L16.6059 27.7502C16.2819 28.0751 15.7376 28.0948 15.3929 27.7502L11.964 24.3213C11.6288 23.9861 11.6288 23.4443 11.964 23.1091C12.2992 22.7739 12.8409 22.7739 13.1761 23.1091L15.1426 25.0748V16.8572H6.92511L8.89077 18.8229C9.22595 19.1581 9.22595 19.6999 8.89077 20.035C8.55559 20.3702 8.01381 20.3702 7.67863 20.035L4.24966 16.6061C3.91791 16.2743 3.91533 15.7274 4.24966 15.3931L7.67863 11.9641C8.01381 11.6289 8.55559 11.6289 8.89077 11.9641C9.22595 12.2993 9.22595 12.8411 8.89077 13.1762L6.92511 15.1428H15.1426V6.92523L13.177 8.89089C12.8418 9.22607 12.3 9.22607 11.9648 8.89089C11.6297 8.55571 11.6297 8.01393 11.9648 7.67875L15.3938 4.24978C15.7256 3.91803 16.2725 3.91546 16.6068 4.24978L20.0358 7.67875C20.371 8.01393 20.371 8.55571 20.0358 8.89089C19.8678 9.05805 19.6483 9.14206 19.4288 9.14206C19.2094 9.14206 18.9899 9.05805 18.8228 8.89089L16.8571 6.92523V15.1428H25.0746L23.109 13.1771C22.7738 12.8419 22.7738 12.3001 23.109 11.965C23.4442 11.6298 23.9859 11.6298 24.3211 11.965L27.7501 15.3939C28.0844 15.7274 28.0819 16.2752 27.7501 16.6061Z" fill="#7209B7"/>
</svg>
