<svg width="129" height="128" viewBox="0 0 129 128" fill="none" xmlns="http://www.w3.org/2000/svg">
<path d="M41.8219 52.9615H47.4469V48.25H61.6875V80.2842H56.8132V85.9092H72.1868V80.2842H67.3125V48.25H81.5531V52.9615H87.1781V42.625H41.8219V52.9615Z" fill="#676767"/>
<path d="M105.797 91.1884V36.8116C109.726 35.1906 112.5 31.3202 112.5 26.8126C112.5 20.8504 107.65 16 101.687 16C97.1797 16 93.3094 18.7737 91.6884 22.7031H37.3116C35.6906 18.7737 31.8202 16 27.3126 16C21.3504 16 16.5 20.8504 16.5 26.8126C16.5 31.3202 19.2737 35.1908 23.2031 36.8118V91.1884C19.2737 92.8094 16.5 96.6797 16.5 101.187C16.5 107.15 21.3504 112 27.3126 112C31.8202 112 35.6906 109.226 37.3116 105.297H91.6884C93.3094 109.226 97.1797 112 101.687 112C107.65 112 112.5 107.15 112.5 101.187C112.5 96.6797 109.726 92.8094 105.797 91.1884ZM90.9834 99.6719H38.0166C37.3468 94.9206 33.5792 91.153 28.8281 90.4834V37.5166C33.5792 36.847 37.3468 33.0792 38.0166 28.3281H90.9834C91.6532 33.0794 95.4208 36.847 100.172 37.5166V90.4832C95.4208 91.153 91.6532 94.9206 90.9834 99.6719ZM101.687 21.625C104.548 21.625 106.875 23.9521 106.875 26.8126C106.875 29.6731 104.548 32.0001 101.687 32.0001C98.8271 32.0001 96.5001 29.6731 96.5001 26.8126C96.5001 23.9521 98.8271 21.625 101.687 21.625ZM27.3126 21.625C30.1729 21.625 32.4999 23.9521 32.4999 26.8126C32.4999 29.6731 30.1729 32.0001 27.3126 32.0001C24.4521 31.9999 22.125 29.6729 22.125 26.8126C22.125 23.9521 24.4521 21.625 27.3126 21.625ZM27.3126 106.375C24.4521 106.375 22.125 104.048 22.125 101.187C22.125 98.3269 24.4521 95.9999 27.3126 95.9999C30.1729 95.9999 32.4999 98.3269 32.4999 101.187C32.4999 104.048 30.1729 106.375 27.3126 106.375ZM101.687 106.375C98.8271 106.375 96.5001 104.048 96.5001 101.187C96.5001 98.3269 98.8271 95.9999 101.687 95.9999C104.548 95.9999 106.875 98.3269 106.875 101.187C106.875 104.048 104.548 106.375 101.687 106.375Z" fill="#676767"/>
</svg>
